SourceCode_ExtraLight-Italic.ufo
<glyph name="ampersand_ampersand" format="1">
  <advance width="1200"/>
  <outline>
    <contour>
      <point x="179" y="-12" type="curve" smooth="yes"/>
      <point x="254" y="-12"/>
      <point x="330" y="26"/>
      <point x="388" y="84" type="curve" smooth="yes"/>
      <point x="456" y="152"/>
      <point x="517" y="242"/>
      <point x="563" y="341" type="curve"/>
      <point x="533" y="341" type="line"/>
      <point x="491" y="248"/>
      <point x="437" y="167"/>
      <point x="370" y="102" type="curve" smooth="yes"/>
      <point x="318" y="52"/>
      <point x="246" y="15"/>
      <point x="184" y="15" type="curve" smooth="yes"/>
      <point x="112" y="15"/>
      <point x="59" y="58"/>
      <point x="59" y="136" type="curve" smooth="yes"/>
      <point x="59" y="336"/>
      <point x="435" y="380"/>
      <point x="435" y="584" type="curve" smooth="yes"/>
      <point x="435" y="630"/>
      <point x="407" y="672"/>
      <point x="347" y="672" type="curve" smooth="yes"/>
      <point x="269" y="672"/>
      <point x="193" y="597"/>
      <point x="193" y="482" type="curve" smooth="yes"/>
      <point x="193" y="348"/>
      <point x="278" y="183"/>
      <point x="367" y="83" type="curve" smooth="yes"/>
      <point x="409" y="35"/>
      <point x="459" y="4"/>
      <point x="493" y="-12" type="curve"/>
      <point x="507" y="12" type="line"/>
      <point x="473" y="28"/>
      <point x="426" y="58"/>
      <point x="387" y="102" type="curve" smooth="yes"/>
      <point x="293" y="206"/>
      <point x="221" y="358"/>
      <point x="221" y="486" type="curve" smooth="yes"/>
      <point x="221" y="577"/>
      <point x="276" y="646"/>
      <point x="347" y="646" type="curve" smooth="yes"/>
      <point x="390" y="646"/>
      <point x="407" y="612"/>
      <point x="407" y="577" type="curve" smooth="yes"/>
      <point x="407" y="394"/>
      <point x="30" y="356"/>
      <point x="30" y="130" type="curve" smooth="yes"/>
      <point x="30" y="40"/>
      <point x="95" y="-12"/>
    </contour>
    <contour>
      <point x="779" y="-12" type="curve" smooth="yes"/>
      <point x="854" y="-12"/>
      <point x="930" y="26"/>
      <point x="988" y="84" type="curve" smooth="yes"/>
      <point x="1056" y="152"/>
      <point x="1117" y="242"/>
      <point x="1163" y="341" type="curve"/>
      <point x="1133" y="341" type="line"/>
      <point x="1091" y="248"/>
      <point x="1037" y="167"/>
      <point x="970" y="102" type="curve" smooth="yes"/>
      <point x="918" y="52"/>
      <point x="846" y="15"/>
      <point x="784" y="15" type="curve" smooth="yes"/>
      <point x="712" y="15"/>
      <point x="659" y="58"/>
      <point x="659" y="136" type="curve" smooth="yes"/>
      <point x="659" y="336"/>
      <point x="1035" y="380"/>
      <point x="1035" y="584" type="curve" smooth="yes"/>
      <point x="1035" y="630"/>
      <point x="1007" y="672"/>
      <point x="947" y="672" type="curve" smooth="yes"/>
      <point x="869" y="672"/>
      <point x="793" y="597"/>
      <point x="793" y="482" type="curve" smooth="yes"/>
      <point x="793" y="348"/>
      <point x="878" y="183"/>
      <point x="967" y="83" type="curve" smooth="yes"/>
      <point x="1009" y="35"/>
      <point x="1059" y="4"/>
      <point x="1093" y="-12" type="curve"/>
      <point x="1107" y="12" type="line"/>
      <point x="1073" y="28"/>
      <point x="1026" y="58"/>
      <point x="987" y="102" type="curve" smooth="yes"/>
      <point x="893" y="206"/>
      <point x="821" y="358"/>
      <point x="821" y="486" type="curve" smooth="yes"/>
      <point x="821" y="577"/>
      <point x="876" y="646"/>
      <point x="947" y="646" type="curve" smooth="yes"/>
      <point x="990" y="646"/>
      <point x="1007" y="612"/>
      <point x="1007" y="577" type="curve" smooth="yes"/>
      <point x="1007" y="394"/>
      <point x="630" y="356"/>
      <point x="630" y="130" type="curve" smooth="yes"/>
      <point x="630" y="40"/>
      <point x="695" y="-12"/>
    </contour>
  </outline>
</glyph>
<glyph name="bar_greater" format="1">
  <advance width="1200"/>
  <outline>
    <contour>
      <point x="1076" y="348" type="line"/>
      <point x="458" y="667" type="line"/>
      <point x="458" y="630" type="line"/>
      <point x="1044" y="334" type="line"/>
      <point x="1044" y="330" type="line"/>
      <point x="457" y="28" type="line"/>
      <point x="457" y="-9" type="line"/>
      <point x="1076" y="316" type="line"/>
    </contour>
    <contour>
      <point x="286" y="-90" type="line"/>
      <point x="314" y="-90" type="line"/>
      <point x="314" y="750" type="line"/>
      <point x="286" y="750" type="line"/>
    </contour>
  </outline>
</glyph>
<glyph name="colon_equal" format="1">
  <advance width="1200"/>
  <outline>
    <contour>
      <point x="1101" y="217" type="line"/>
      <point x="1101" y="243" type="line"/>
      <point x="476" y="243" type="line"/>
      <point x="476" y="217" type="line"/>
    </contour>
    <contour>
      <point x="301" y="177"/>
      <point x="331" y="211"/>
      <point x="331" y="245" type="curve" smooth="yes"/>
      <point x="331" y="273"/>
      <point x="315" y="291"/>
      <point x="289" y="291" type="curve" smooth="yes"/>
      <point x="257" y="291"/>
      <point x="227" y="257"/>
      <point x="227" y="223" type="curve" smooth="yes"/>
      <point x="227" y="195"/>
      <point x="243" y="177"/>
      <point x="269" y="177" type="curve" smooth="yes"/>
    </contour>
    <contour>
      <point x="343" y="374"/>
      <point x="373" y="408"/>
      <point x="373" y="442" type="curve" smooth="yes"/>
      <point x="373" y="470"/>
      <point x="357" y="488"/>
      <point x="331" y="488" type="curve" smooth="yes"/>
      <point x="299" y="488"/>
      <point x="269" y="454"/>
      <point x="269" y="420" type="curve" smooth="yes"/>
      <point x="269" y="392"/>
      <point x="285" y="374"/>
      <point x="311" y="374" type="curve" smooth="yes"/>
    </contour>
    <contour>
      <point x="1101" y="417" type="line"/>
      <point x="1101" y="443" type="line"/>
      <point x="518" y="443" type="line"/>
      <point x="518" y="417" type="line"/>
    </contour>
  </outline>
</glyph>
<glyph name="equal_colon_equal" format="1">
  <advance width="1800"/>
  <outline>
    <contour>
      <point x="1701" y="217" type="line"/>
      <point x="1701" y="243" type="line"/>
      <point x="1076" y="243" type="line"/>
      <point x="1076" y="217" type="line"/>
    </contour>
    <contour>
      <point x="682" y="217" type="line"/>
      <point x="682" y="243" type="line"/>
      <point x="99" y="243" type="line"/>
      <point x="99" y="217" type="line"/>
    </contour>
    <contour>
      <point x="724" y="417" type="line"/>
      <point x="724" y="443" type="line"/>
      <point x="99" y="443" type="line"/>
      <point x="99" y="417" type="line"/>
    </contour>
    <contour>
      <point x="901" y="177"/>
      <point x="931" y="211"/>
      <point x="931" y="245" type="curve" smooth="yes"/>
      <point x="931" y="273"/>
      <point x="915" y="291"/>
      <point x="889" y="291" type="curve" smooth="yes"/>
      <point x="857" y="291"/>
      <point x="827" y="257"/>
      <point x="827" y="223" type="curve" smooth="yes"/>
      <point x="827" y="195"/>
      <point x="843" y="177"/>
      <point x="869" y="177" type="curve" smooth="yes"/>
    </contour>
    <contour>
      <point x="943" y="374"/>
      <point x="973" y="408"/>
      <point x="973" y="442" type="curve" smooth="yes"/>
      <point x="973" y="470"/>
      <point x="957" y="488"/>
      <point x="931" y="488" type="curve" smooth="yes"/>
      <point x="899" y="488"/>
      <point x="869" y="454"/>
      <point x="869" y="420" type="curve" smooth="yes"/>
      <point x="869" y="392"/>
      <point x="885" y="374"/>
      <point x="911" y="374" type="curve" smooth="yes"/>
    </contour>
    <contour>
      <point x="1701" y="417" type="line"/>
      <point x="1701" y="443" type="line"/>
      <point x="1118" y="443" type="line"/>
      <point x="1118" y="417" type="line"/>
    </contour>
  </outline>
</glyph>
<glyph name="equal_exclam_equal" format="1">
  <advance width="1800"/>
  <outline>
    <contour>
      <point x="682" y="217" type="line"/>
      <point x="682" y="243" type="line"/>
      <point x="99" y="243" type="line"/>
      <point x="99" y="217" type="line"/>
    </contour>
    <contour>
      <point x="724" y="417" type="line"/>
      <point x="724" y="443" type="line"/>
      <point x="99" y="443" type="line"/>
      <point x="99" y="417" type="line"/>
    </contour>
    <contour>
      <point x="1701" y="217" type="line"/>
      <point x="1701" y="243" type="line"/>
      <point x="1076" y="243" type="line"/>
      <point x="1076" y="217" type="line"/>
    </contour>
    <contour>
      <point x="1701" y="417" type="line"/>
      <point x="1701" y="443" type="line"/>
      <point x="1118" y="443" type="line"/>
      <point x="1118" y="417" type="line"/>
    </contour>
    <component base="exclam" xOffset="600"/>
  </outline>
</glyph>
<glyph name="equal_less_less" format="1">
  <advance width="1800"/>
  <outline>
    <contour>
      <point x="98" y="416" type="line"/>
      <point x="920" y="416" type="line"/>
      <point x="920" y="444" type="line"/>
      <point x="98" y="444" type="line"/>
    </contour>
    <contour>
      <point x="98" y="216" type="line"/>
      <point x="924" y="216" type="line"/>
      <point x="924" y="244" type="line"/>
      <point x="98" y="244" type="line"/>
    </contour>
    <component base="less_less"/>
  </outline>
</glyph>
<glyph name="equal_slash_equal" format="1">
  <advance width="1800"/>
  <outline>
    <contour>
      <point x="662" y="-160" type="line"/>
      <point x="1162" y="710" type="line"/>
      <point x="1130" y="710" type="line"/>
      <point x="630" y="-160" type="line"/>
    </contour>
    <contour>
      <point x="768" y="217" type="line"/>
      <point x="783" y="243" type="line"/>
      <point x="99" y="243" type="line"/>
      <point x="99" y="217" type="line"/>
    </contour>
    <contour>
      <point x="883" y="417" type="line"/>
      <point x="898" y="443" type="line"/>
      <point x="99" y="443" type="line"/>
      <point x="99" y="417" type="line"/>
    </contour>
    <contour>
      <point x="1701" y="217" type="line"/>
      <point x="1701" y="243" type="line"/>
      <point x="973" y="243" type="line"/>
      <point x="958" y="217" type="line"/>
    </contour>
    <contour>
      <point x="1701" y="417" type="line"/>
      <point x="1701" y="443" type="line"/>
      <point x="1088" y="443" type="line"/>
      <point x="1073" y="417" type="line"/>
    </contour>
  </outline>
</glyph>
<glyph name="greater_equal" format="1">
  <advance width="1200"/>
  <outline>
    <contour>
      <point x="409" y="62" type="line"/>
      <point x="771" y="316" type="line"/>
      <point x="771" y="348" type="line"/>
      <point x="409" y="602" type="line"/>
      <point x="409" y="566" type="line"/>
      <point x="739" y="334" type="line"/>
      <point x="739" y="330" type="line"/>
      <point x="409" y="98" type="line"/>
    </contour>
    <contour>
      <point x="409" y="-66" type="line"/>
      <point x="771" y="188" type="line"/>
      <point x="771" y="220" type="line"/>
      <point x="409" y="-30" type="line"/>
    </contour>
  </outline>
</glyph>
<glyph name="greater_greater_hyphen" format="1">
  <advance width="1800"/>
  <outline>
    <contour>
      <point x="599" y="316" type="line"/>
      <point x="1702" y="316" type="line"/>
      <point x="1702" y="344" type="line"/>
      <point x="599" y="344" type="line"/>
    </contour>
    <component base="less_less" xOffset="600" yOffset="664" xScale="-1" yScale="-1"/>
  </outline>
</glyph>
<glyph name="hyphen_greater" format="1">
  <advance width="1200"/>
  <outline>
    <contour>
      <point x="98" y="316" type="line"/>
      <point x="1024" y="316" type="line"/>
      <point x="714" y="98" type="line"/>
      <point x="714" y="62" type="line"/>
      <point x="1098" y="331" type="line"/>
      <point x="714" y="602" type="line"/>
      <point x="714" y="566" type="line"/>
      <point x="1030" y="344" type="line"/>
      <point x="98" y="344" type="line"/>
    </contour>
  </outline>
</glyph>
<glyph name="less_bar" format="1">
  <advance width="1200"/>
  <outline>
    <contour>
      <point x="124" y="316" type="line"/>
      <point x="742" y="-13" type="line"/>
      <point x="742" y="23" type="line"/>
      <point x="156" y="330" type="line"/>
      <point x="156" y="334" type="line"/>
      <point x="742" y="652" type="line"/>
      <point x="742" y="688" type="line"/>
      <point x="124" y="348" type="line"/>
    </contour>
    <contour>
      <point x="886" y="-90" type="line"/>
      <point x="914" y="-90" type="line"/>
      <point x="914" y="750" type="line"/>
      <point x="886" y="750" type="line"/>
    </contour>
  </outline>
</glyph>
<glyph name="less_exclam_hyphen_hyphen" format="1">
  <advance width="2400"/>
  <outline>
    <contour>
      <point x="486" y="96" type="line"/>
      <point x="173" y="316" type="line"/>
      <point x="812" y="316" type="line"/>
      <point x="818" y="344" type="line"/>
      <point x="173" y="344" type="line"/>
      <point x="486" y="564" type="line"/>
      <point x="486" y="600" type="line"/>
      <point x="124" y="346" type="line"/>
      <point x="124" y="314" type="line"/>
      <point x="486" y="60" type="line"/>
    </contour>
    <contour>
      <point x="870" y="-12"/>
      <point x="900" y="22"/>
      <point x="900" y="56" type="curve" smooth="yes"/>
      <point x="900" y="84"/>
      <point x="884" y="102"/>
      <point x="858" y="102" type="curve" smooth="yes"/>
      <point x="826" y="102"/>
      <point x="796" y="68"/>
      <point x="796" y="34" type="curve" smooth="yes"/>
      <point x="796" y="6"/>
      <point x="812" y="-12"/>
      <point x="838" y="-12" type="curve" smooth="yes"/>
    </contour>
    <contour>
      <point x="894" y="214" type="line"/>
      <point x="976" y="608" type="line"/>
      <point x="988" y="672" type="line"/>
      <point x="956" y="672" type="line"/>
      <point x="944" y="608" type="line"/>
      <point x="870" y="214" type="line"/>
    </contour>
    <contour>
      <point x="2302" y="316" type="line"/>
      <point x="2302" y="344" type="line"/>
      <point x="996" y="344" type="line"/>
      <point x="990" y="316" type="line"/>
    </contour>
  </outline>
</glyph>
<glyph name="less_hyphen" format="1">
  <advance width="1200"/>
  <outline>
    <contour>
      <point x="102" y="332" type="line"/>
      <point x="486" y="62" type="line"/>
      <point x="486" y="98" type="line"/>
      <point x="176" y="316" type="line"/>
      <point x="1102" y="316" type="line"/>
      <point x="1102" y="344" type="line"/>
      <point x="170" y="344" type="line"/>
      <point x="486" y="566" type="line"/>
      <point x="486" y="602" type="line"/>
    </contour>
  </outline>
</glyph>
<glyph name="numbersign_numbersign" format="1">
  <advance width="1200"/>
  <outline>
    <contour>
      <point x="120" y="0" type="line"/>
      <point x="188" y="218" type="line"/>
      <point x="354" y="218" type="line"/>
      <point x="286" y="0" type="line"/>
      <point x="314" y="0" type="line"/>
      <point x="382" y="218" type="line"/>
      <point x="760" y="218" type="line"/>
      <point x="692" y="0" type="line"/>
      <point x="720" y="0" type="line"/>
      <point x="788" y="218" type="line"/>
      <point x="954" y="218" type="line"/>
      <point x="886" y="0" type="line"/>
      <point x="914" y="0" type="line"/>
      <point x="982" y="218" type="line"/>
      <point x="1146" y="218" type="line"/>
      <point x="1154" y="246" type="line"/>
      <point x="990" y="246" type="line"/>
      <point x="1046" y="424" type="line"/>
      <point x="1206" y="424" type="line"/>
      <point x="1214" y="452" type="line"/>
      <point x="1054" y="452" type="line"/>
      <point x="1116" y="650" type="line"/>
      <point x="1088" y="650" type="line"/>
      <point x="1026" y="452" type="line"/>
      <point x="860" y="452" type="line"/>
      <point x="922" y="650" type="line"/>
      <point x="894" y="650" type="line"/>
      <point x="832" y="452" type="line"/>
      <point x="454" y="452" type="line"/>
      <point x="516" y="650" type="line"/>
      <point x="488" y="650" type="line"/>
      <point x="426" y="452" type="line"/>
      <point x="260" y="452" type="line"/>
      <point x="322" y="650" type="line"/>
      <point x="294" y="650" type="line"/>
      <point x="232" y="452" type="line"/>
      <point x="68" y="452" type="line"/>
      <point x="60" y="424" type="line"/>
      <point x="224" y="424" type="line"/>
      <point x="168" y="246" type="line"/>
      <point x="8" y="246" type="line"/>
      <point x="0" y="218" type="line"/>
      <point x="160" y="218" type="line"/>
      <point x="92" y="0" type="line"/>
    </contour>
    <contour>
      <point x="252" y="424" type="line"/>
      <point x="418" y="424" type="line"/>
      <point x="362" y="246" type="line"/>
      <point x="196" y="246" type="line"/>
    </contour>
    <contour>
      <point x="446" y="424" type="line"/>
      <point x="824" y="424" type="line"/>
      <point x="768" y="246" type="line"/>
      <point x="390" y="246" type="line"/>
    </contour>
    <contour>
      <point x="852" y="424" type="line"/>
      <point x="1018" y="424" type="line"/>
      <point x="962" y="246" type="line"/>
      <point x="796" y="246" type="line"/>
    </contour>
  </outline>
</glyph>
<glyph name="numbersign_numbersign_numbersign" format="1">
  <advance width="1800"/>
  <outline>
    <contour>
      <point x="120" y="0" type="line"/>
      <point x="188" y="218" type="line"/>
      <point x="354" y="218" type="line"/>
      <point x="286" y="0" type="line"/>
      <point x="314" y="0" type="line"/>
      <point x="382" y="218" type="line"/>
      <point x="760" y="218" type="line"/>
      <point x="692" y="0" type="line"/>
      <point x="720" y="0" type="line"/>
      <point x="788" y="218" type="line"/>
      <point x="954" y="218" type="line"/>
      <point x="886" y="0" type="line"/>
      <point x="914" y="0" type="line"/>
      <point x="982" y="218" type="line"/>
      <point x="1360" y="218" type="line"/>
      <point x="1292" y="0" type="line"/>
      <point x="1320" y="0" type="line"/>
      <point x="1388" y="218" type="line"/>
      <point x="1554" y="218" type="line"/>
      <point x="1486" y="0" type="line"/>
      <point x="1514" y="0" type="line"/>
      <point x="1582" y="218" type="line"/>
      <point x="1746" y="218" type="line"/>
      <point x="1754" y="246" type="line"/>
      <point x="1590" y="246" type="line"/>
      <point x="1646" y="424" type="line"/>
      <point x="1806" y="424" type="line"/>
      <point x="1814" y="452" type="line"/>
      <point x="1654" y="452" type="line"/>
      <point x="1716" y="650" type="line"/>
      <point x="1688" y="650" type="line"/>
      <point x="1626" y="452" type="line"/>
      <point x="1460" y="452" type="line"/>
      <point x="1522" y="650" type="line"/>
      <point x="1494" y="650" type="line"/>
      <point x="1432" y="452" type="line"/>
      <point x="1054" y="452" type="line"/>
      <point x="1116" y="650" type="line"/>
      <point x="1088" y="650" type="line"/>
      <point x="1026" y="452" type="line"/>
      <point x="860" y="452" type="line"/>
      <point x="922" y="650" type="line"/>
      <point x="894" y="650" type="line"/>
      <point x="832" y="452" type="line"/>
      <point x="454" y="452" type="line"/>
      <point x="516" y="650" type="line"/>
      <point x="488" y="650" type="line"/>
      <point x="426" y="452" type="line"/>
      <point x="260" y="452" type="line"/>
      <point x="322" y="650" type="line"/>
      <point x="294" y="650" type="line"/>
      <point x="232" y="452" type="line"/>
      <point x="68" y="452" type="line"/>
      <point x="60" y="424" type="line"/>
      <point x="224" y="424" type="line"/>
      <point x="168" y="246" type="line"/>
      <point x="8" y="246" type="line"/>
      <point x="0" y="218" type="line"/>
      <point x="160" y="218" type="line"/>
      <point x="92" y="0" type="line"/>
    </contour>
    <contour>
      <point x="252" y="424" type="line"/>
      <point x="418" y="424" type="line"/>
      <point x="362" y="246" type="line"/>
      <point x="196" y="246" type="line"/>
    </contour>
    <contour>
      <point x="446" y="424" type="line"/>
      <point x="824" y="424" type="line"/>
      <point x="768" y="246" type="line"/>
      <point x="390" y="246" type="line"/>
    </contour>
    <contour>
      <point x="852" y="424" type="line"/>
      <point x="1018" y="424" type="line"/>
      <point x="962" y="246" type="line"/>
      <point x="796" y="246" type="line"/>
    </contour>
    <contour>
      <point x="1046" y="424" type="line"/>
      <point x="1424" y="424" type="line"/>
      <point x="1368" y="246" type="line"/>
      <point x="990" y="246" type="line"/>
    </contour>
    <contour>
      <point x="1452" y="424" type="line"/>
      <point x="1618" y="424" type="line"/>
      <point x="1562" y="246" type="line"/>
      <point x="1396" y="246" type="line"/>
    </contour>
  </outline>
</glyph>
<glyph name="period_hyphen" format="1">
  <advance width="1200"/>
  <outline>
    <contour>
      <point x="1101" y="317" type="line"/>
      <point x="1101" y="343" type="line"/>
      <point x="518" y="343" type="line"/>
      <point x="518" y="317" type="line"/>
    </contour>
    <contour>
      <point x="327" y="284"/>
      <point x="357" y="318"/>
      <point x="357" y="352" type="curve" smooth="yes"/>
      <point x="357" y="380"/>
      <point x="341" y="398"/>
      <point x="315" y="398" type="curve" smooth="yes"/>
      <point x="283" y="398"/>
      <point x="253" y="364"/>
      <point x="253" y="330" type="curve" smooth="yes"/>
      <point x="253" y="302"/>
      <point x="269" y="284"/>
      <point x="295" y="284" type="curve" smooth="yes"/>
    </contour>
  </outline>
</glyph>
<glyph name="plus_plus" format="1">
  <advance width="1200"/>
  <outline>
    <contour>
      <point x="118" y="316" type="line"/>
      <point x="199" y="316" type="line"/>
      <point x="199" y="344" type="line"/>
      <point x="118" y="344" type="line"/>
    </contour>
    <contour>
      <point x="991" y="316" type="line"/>
      <point x="1082" y="316" type="line"/>
      <point x="1082" y="344" type="line"/>
      <point x="991" y="344" type="line"/>
    </contour>
    <contour>
      <point x="534" y="316" type="line"/>
      <point x="675" y="316" type="line"/>
      <point x="675" y="344" type="line"/>
      <point x="534" y="344" type="line"/>
    </contour>
    <component base="plus" xOffset="519"/>
    <component base="plus" xOffset="81"/>
  </outline>
</glyph>
<glyph name="slash_equal" format="1">
  <advance width="1200"/>
  <outline>
    <contour>
      <point x="62" y="-160" type="line"/>
      <point x="562" y="710" type="line"/>
      <point x="530" y="710" type="line"/>
      <point x="30" y="-160" type="line"/>
    </contour>
    <contour>
      <point x="1101" y="217" type="line"/>
      <point x="1101" y="243" type="line"/>
      <point x="373" y="243" type="line"/>
      <point x="358" y="217" type="line"/>
    </contour>
    <contour>
      <point x="1101" y="417" type="line"/>
      <point x="1101" y="443" type="line"/>
      <point x="488" y="443" type="line"/>
      <point x="473" y="417" type="line"/>
    </contour>
  </outline>
</glyph>
<glyph name="slash_equal_equal" format="1">
  <advance width="1800"/>
  <outline>
    <contour>
      <point x="62" y="-160" type="line"/>
      <point x="562" y="710" type="line"/>
      <point x="530" y="710" type="line"/>
      <point x="30" y="-160" type="line"/>
    </contour>
    <contour>
      <point x="1701" y="119" type="line"/>
      <point x="1701" y="145" type="line"/>
      <point x="316" y="145" type="line"/>
      <point x="301" y="119" type="line"/>
    </contour>
    <contour>
      <point x="1701" y="317" type="line"/>
      <point x="1701" y="343" type="line"/>
      <point x="430" y="343" type="line"/>
      <point x="415" y="317" type="line"/>
    </contour>
    <contour>
      <point x="1701" y="515" type="line"/>
      <point x="1701" y="541" type="line"/>
      <point x="544" y="541" type="line"/>
      <point x="529" y="515" type="line"/>
    </contour>
  </outline>
</glyph>
<glyph name="w_w_w" format="1">
  <advance width="1800"/>
  <outline>
    <contour>
      <point x="168" y="0" type="line"/>
      <point x="312" y="262" type="line" smooth="yes"/>
      <point x="331" y="297"/>
      <point x="352" y="337"/>
      <point x="373" y="375" type="curve"/>
      <point x="375" y="375" type="line"/>
      <point x="379" y="337"/>
      <point x="380" y="302"/>
      <point x="383" y="263" type="curve" smooth="yes"/>
      <point x="403" y="0" type="line"/>
      <point x="444" y="0" type="line"/>
      <point x="588" y="262" type="line" smooth="yes"/>
      <point x="607" y="297"/>
      <point x="628" y="337"/>
      <point x="649" y="375" type="curve"/>
      <point x="651" y="375" type="line"/>
      <point x="655" y="337"/>
      <point x="656" y="302"/>
      <point x="659" y="263" type="curve" smooth="yes"/>
      <point x="679" y="0" type="line"/>
      <point x="720" y="0" type="line"/>
      <point x="864" y="262" type="line" smooth="yes"/>
      <point x="883" y="297"/>
      <point x="904" y="337"/>
      <point x="925" y="375" type="curve"/>
      <point x="927" y="375" type="line"/>
      <point x="931" y="337"/>
      <point x="932" y="302"/>
      <point x="935" y="263" type="curve" smooth="yes"/>
      <point x="955" y="0" type="line"/>
      <point x="996" y="0" type="line"/>
      <point x="1140" y="262" type="line" smooth="yes"/>
      <point x="1159" y="297"/>
      <point x="1180" y="337"/>
      <point x="1201" y="375" type="curve"/>
      <point x="1203" y="375" type="line"/>
      <point x="1207" y="337"/>
      <point x="1208" y="302"/>
      <point x="1211" y="263" type="curve" smooth="yes"/>
      <point x="1231" y="0" type="line"/>
      <point x="1272" y="0" type="line"/>
      <point x="1416" y="262" type="line" smooth="yes"/>
      <point x="1435" y="297"/>
      <point x="1456" y="337"/>
      <point x="1477" y="375" type="curve"/>
      <point x="1479" y="375" type="line"/>
      <point x="1483" y="337"/>
      <point x="1484" y="302"/>
      <point x="1487" y="263" type="curve" smooth="yes"/>
      <point x="1507" y="0" type="line"/>
      <point x="1548" y="0" type="line"/>
      <point x="1771" y="478" type="line"/>
      <point x="1739" y="478" type="line"/>
      <point x="1591" y="153" type="line"/>
      <point x="1571" y="91"/>
      <point x="1553" y="58"/>
      <point x="1534" y="23" type="curve"/>
      <point x="1530" y="23" type="line"/>
      <point x="1528" y="58"/>
      <point x="1526" y="91"/>
      <point x="1523" y="128" type="curve" smooth="yes"/>
      <point x="1503" y="398" type="line"/>
      <point x="1463" y="398" type="line"/>
      <point x="1315" y="128" type="line" smooth="yes"/>
      <point x="1295" y="91"/>
      <point x="1277" y="57"/>
      <point x="1258" y="23" type="curve"/>
      <point x="1254" y="23" type="line"/>
      <point x="1252" y="58"/>
      <point x="1250" y="91"/>
      <point x="1247" y="128" type="curve" smooth="yes"/>
      <point x="1227" y="398" type="line"/>
      <point x="1187" y="398" type="line"/>
      <point x="1039" y="128" type="line" smooth="yes"/>
      <point x="1019" y="91"/>
      <point x="1001" y="57"/>
      <point x="982" y="23" type="curve"/>
      <point x="978" y="23" type="line"/>
      <point x="976" y="58"/>
      <point x="974" y="91"/>
      <point x="971" y="128" type="curve" smooth="yes"/>
      <point x="951" y="398" type="line"/>
      <point x="911" y="398" type="line"/>
      <point x="763" y="128" type="line" smooth="yes"/>
      <point x="743" y="91"/>
      <point x="725" y="57"/>
      <point x="706" y="23" type="curve"/>
      <point x="702" y="23" type="line"/>
      <point x="700" y="58"/>
      <point x="698" y="91"/>
      <point x="695" y="128" type="curve" smooth="yes"/>
      <point x="675" y="398" type="line"/>
      <point x="635" y="398" type="line"/>
      <point x="487" y="128" type="line" smooth="yes"/>
      <point x="467" y="91"/>
      <point x="449" y="57"/>
      <point x="430" y="23" type="curve"/>
      <point x="426" y="23" type="line"/>
      <point x="424" y="58"/>
      <point x="422" y="91"/>
      <point x="419" y="128" type="curve" smooth="yes"/>
      <point x="399" y="398" type="line"/>
      <point x="359" y="398" type="line"/>
      <point x="211" y="128" type="line" smooth="yes"/>
      <point x="191" y="91"/>
      <point x="173" y="57"/>
      <point x="154" y="23" type="curve"/>
      <point x="150" y="23" type="line"/>
      <point x="149" y="58"/>
      <point x="147" y="110"/>
      <point x="144" y="154" type="curve" smooth="yes"/>
      <point x="124" y="478" type="line"/>
      <point x="94" y="478" type="line"/>
      <point x="128" y="0" type="line"/>
    </contour>
    <contour>
      <point x="330" y="500" type="move" name="aboveLC"/>
    </contour>
    <contour>
      <point x="240" y="-20" type="move" name="belowLC"/>
    </contour>
  </outline>
</glyph>
